HIERARCHY
ROOT Hips
{
	OFFSET -0.001795 -0.223333 0.028219
	CHANNELS 6 Xposition Yposition Zposition Zrotation Yrotation Xrotation 
	JOINT LeftUpLeg
	{
		OFFSET 0.069520 -0.091406 -0.006815
		CHANNELS 3 Zrotation Yrotation Xrotation
		JOINT LeftLeg
		{
			OFFSET 0.034277 -0.375199 -0.004496
			CHANNELS 3 Zrotation Yrotation Xrotation
			JOINT LeftFoot
			{
				OFFSET -0.013596 -0.397961 -0.043693
				CHANNELS 3 Zrotation Yrotation Xrotation
				JOINT LeftToe
				{
					OFFSET 0.026358 -0.055791 0.119288
					CHANNELS 3 Zrotation Yrotation Xrotation
					End Site
					{
						OFFSET 0.000000 0.000000 0.000000
					}
				}
			}
		}
	}
	JOINT RightUpLeg
	{
		OFFSET -0.067670 -0.090522 -0.004320
		CHANNELS 3 Zrotation Yrotation Xrotation
		JOINT RightLeg
		{
			OFFSET -0.038290 -0.382569 -0.008850
			CHANNELS 3 Zrotation Yrotation Xrotation
			JOINT RightFoot
			{
				OFFSET 0.015774 -0.398415 -0.042312
				CHANNELS 3 Zrotation Yrotation Xrotation
				JOINT RightToe
				{
					OFFSET -0.025372 -0.048144 0.123348
					CHANNELS 3 Zrotation Yrotation Xrotation
					End Site
					{
						OFFSET 0.000000 0.000000 0.000000
					}
				}
			}
		}
	}
	JOINT Spine
	{
		OFFSET -0.002533 0.108963 -0.026696
		CHANNELS 3 Zrotation Yrotation Xrotation
		JOINT Spine1
		{
			OFFSET 0.005487 0.135180 0.001092
			CHANNELS 3 Zrotation Yrotation Xrotation
			JOINT Spine2
			{
				OFFSET 0.001457 0.052922 0.025425
				CHANNELS 3 Zrotation Yrotation Xrotation
				JOINT Neck
				{
					OFFSET -0.002778 0.213870 -0.042857
					CHANNELS 3 Zrotation Yrotation Xrotation
					JOINT Head
					{
						OFFSET 0.005152 0.064970 0.051349
						CHANNELS 3 Zrotation Yrotation Xrotation
						End Site
						{
							OFFSET 0.000000 0.000000 0.000000
						}
					}
				}
				JOINT LeftShoulder
				{
					OFFSET 0.078845 0.121749 -0.034090
					CHANNELS 3 Zrotation Yrotation Xrotation
					JOINT LeftArm
					{
						OFFSET 0.090977 0.030469 -0.008868
						CHANNELS 3 Zrotation Yrotation Xrotation
						JOINT LeftForeArm
						{
							OFFSET 0.259612 -0.012772 -0.027456
							CHANNELS 3 Zrotation Yrotation Xrotation
							JOINT LeftHand
							{
								OFFSET 0.249234 0.008986 -0.001171
								CHANNELS 3 Zrotation Yrotation Xrotation
								End Site
								{
									OFFSET 0.000000 0.000000 0.000000
								}
							}
						}
					}
				}
				JOINT RightShoulder
				{
					OFFSET -0.081759 0.118833 -0.038615
					CHANNELS 3 Zrotation Yrotation Xrotation
					JOINT RightArm
					{
						OFFSET -0.096012 0.032551 -0.009143
						CHANNELS 3 Zrotation Yrotation Xrotation
						JOINT RightForeArm
						{
							OFFSET -0.253742 -0.013329 -0.021401
							CHANNELS 3 Zrotation Yrotation Xrotation
							JOINT RightHand
							{
								OFFSET -0.255298 0.007772 -0.005559
								CHANNELS 3 Zrotation Yrotation Xrotation
								End Site
								{
									OFFSET 0.000000 0.000000 0.000000
								}
							}
						}
					}
				}
			}
		}
	}
}
MOTION
Frames: 15
Frame Time: 0.050000
0.017858 0.965537 -0.029798 -0.044616 1.453987 -5.033534 1.249356 1.069857 13.944688 -0.710436 0.384090 -11.697192 -0.057247 6.649972 18.276061 0.000000 0.000000 0.000000 -5.374119 -0.458182 8.903605 2.965886 -0.394250 -4.676116 -0.865466 -8.677030 20.583769 0.000000 0.000000 0.000000 3.824266 -0.659637 9.232856 -3.182441 1.418493 -25.557851 -0.124642 -0.379768 28.817790 -3.533108 3.791258 -30.096687 0.000000 0.000000 0.000000 11.753773 -13.821002 3.479397 9.609106 -39.166554 -5.154092 64.616077 -11.638586 -7.765947 0.000000 0.000000 0.000000 26.602710 -0.874017 -1.861883 52.630700 4.596119 -5.903061 8.093061 22.243774 2.490543 0.000000 0.000000 0.000000 
0.018226 0.965459 -0.030445 -0.083822 2.114231 -5.157597 1.487821 1.013254 13.898998 -0.985945 0.374677 -11.573583 -0.377889 6.237319 18.121412 0.000000 0.000000 0.000000 -5.357939 -0.501569 9.264377 2.942420 -0.401383 -4.935639 -0.964192 -8.760497 20.741476 0.000000 0.000000 0.000000 3.989833 -0.688322 9.401344 -3.545866 1.513239 -25.447339 0.146479 -0.317662 28.852023 -3.012735 3.586072 -29.883403 0.000000 0.000000 0.000000 10.360689 -13.625916 3.619372 8.308027 -38.426921 -4.785213 66.347777 -11.987015 -8.381882 0.000000 0.000000 0.000000 26.952831 -0.959212 -1.756631 52.153786 4.974847 -5.769125 7.821940 22.012119 2.425523 0.000000 0.000000 0.000000 
0.018379 0.965338 -0.030991 -0.093032 2.339324 -5.155783 1.665659 0.992072 14.031035 -1.264256 0.379558 -11.905229 -0.535593 6.061088 18.185975 0.000000 0.000000 0.000000 -5.485572 -0.501261 9.331165 2.997504 -0.410568 -5.187796 -0.760743 -8.498953 21.196748 0.000000 0.000000 0.000000 4.184032 -0.703085 9.389048 -3.797840 1.581040 -25.305827 0.211662 0.099335 28.964188 -2.509854 3.400064 -29.614140 0.000000 0.000000 0.000000 9.425362 -13.480392 3.719143 6.473329 -36.828493 -4.171513 67.594246 -12.321567 -8.940929 0.000000 0.000000 0.000000 27.407060 -1.152306 -1.699795 51.850445 5.527900 -5.590209 7.359939 22.441221 2.421301 0.000000 0.000000 0.000000 
0.018349 0.964942 -0.031394 -0.147012 2.769837 -5.085155 2.050222 0.924459 13.998117 -1.773203 0.376645 -12.104428 -0.770466 5.761522 18.114861 0.000000 0.000000 0.000000 -5.364428 -0.529072 9.416982 2.913137 -0.409531 -5.270768 -0.879514 -8.552063 20.914386 0.000000 0.000000 0.000000 4.218037 -0.704841 9.327691 -3.891712 1.612987 -25.108054 0.340399 0.199209 29.050860 -1.909107 3.125310 -29.426340 0.000000 0.000000 0.000000 8.139913 -13.208120 3.791775 5.125336 -35.078595 -3.668528 68.894839 -12.645219 -9.506329 0.000000 0.000000 0.000000 27.560915 -1.228383 -1.619573 51.650544 5.729264 -5.536516 7.015222 22.571072 2.386089 0.000000 0.000000 0.000000 
0.018134 0.964796 -0.031654 -0.159066 2.812035 -5.021388 2.253607 0.896433 13.996848 -2.082605 0.377088 -12.256752 -0.817587 5.708286 18.146306 0.000000 0.000000 0.000000 -5.365451 -0.527755 9.390055 2.886160 -0.407709 -5.257872 -0.738927 -8.267606 20.676796 0.000000 0.000000 0.000000 4.164750 -0.706909 9.386837 -4.065082 1.653240 -25.176195 0.551999 0.468480 29.220288 -1.513008 2.957405 -29.426092 0.000000 0.000000 0.000000 7.323981 -12.737559 3.754698 3.729566 -33.320543 -3.197037 69.646685 -12.964092 -9.949572 0.000000 0.000000 0.000000 27.898398 -1.713888 -1.841742 51.497160 5.697920 -5.593330 6.871276 23.143448 2.453095 0.000000 0.000000 0.000000 
0.017865 0.964455 -0.031865 -0.259616 2.807641 -4.962278 2.609388 0.851233 14.026260 -2.491815 0.376842 -12.444021 -0.834962 5.677383 18.126311 0.000000 0.000000 0.000000 -5.129370 -0.555077 9.510888 2.749245 -0.400368 -5.377627 -0.771175 -8.184860 20.081759 0.000000 0.000000 0.000000 4.310165 -0.705833 9.227783 -4.064805 1.658882 -24.870009 0.542661 0.902302 29.138122 -0.945749 2.712371 -29.226659 0.000000 0.000000 0.000000 6.492433 -11.981039 3.643318 2.564769 -31.970189 -2.869348 69.767683 -13.142176 -10.206865 0.000000 0.000000 0.000000 28.108340 -2.140364 -1.987616 51.494347 5.608667 -5.653753 6.935982 23.427109 2.520682 0.000000 0.000000 0.000000 
0.017638 0.964295 -0.031990 -0.270138 2.550082 -4.974997 2.700467 0.847083 13.991158 -2.647265 0.380114 -12.318301 -0.700995 5.820901 18.076405 0.000000 0.000000 0.000000 -5.164061 -0.546440 9.543014 2.655014 -0.391934 -5.375097 -0.365196 -7.500331 19.797748 0.000000 0.000000 0.000000 4.262226 -0.698995 9.209962 -4.145532 1.677269 -24.720172 0.672050 1.283203 29.227089 -0.911479 2.735096 -29.234878 0.000000 0.000000 0.000000 5.755682 -11.334658 3.523828 0.992709 -30.548353 -2.494857 70.105989 -13.351393 -10.443873 0.000000 0.000000 0.000000 28.260071 -2.396787 -2.080686 51.721502 5.586405 -5.710815 6.848965 23.702134 2.558375 0.000000 0.000000 0.000000 
0.017496 0.964179 -0.032069 -0.355486 2.242380 -5.092926 2.715507 0.862505 14.095874 -2.536736 0.384835 -12.229453 -0.528073 6.013108 18.014324 0.000000 0.000000 0.000000 -5.003669 -0.567945 9.779893 2.584707 -0.387514 -5.491823 -0.303618 -7.346769 19.370831 0.000000 0.000000 0.000000 4.488958 -0.715542 9.244878 -4.316962 1.715663 -24.669924 0.801336 1.763002 29.300875 -0.542083 2.576678 -29.004775 0.000000 0.000000 0.000000 4.825223 -10.815357 3.438059 -0.360481 -29.548482 -2.238632 69.486628 -13.345341 -10.363416 0.000000 0.000000 0.000000 28.462809 -2.587257 -2.110220 51.679897 5.489650 -5.784124 7.129940 23.772027 2.635647 0.000000 0.000000 0.000000 
0.017372 0.964142 -0.032008 -0.314135 1.780844 -5.163262 2.510930 0.926969 14.420439 -2.309558 0.395270 -12.558779 -0.326619 6.282784 18.166177 0.000000 0.000000 0.000000 -4.964576 -0.557850 9.772088 2.475662 -0.375434 -5.377513 -0.235948 -7.231487 19.036747 0.000000 0.000000 0.000000 4.678272 -0.730038 9.300236 -4.482670 1.749776 -24.522426 0.803126 2.342772 29.295482 -0.297637 2.498654 -29.037880 0.000000 0.000000 0.000000 3.867060 -10.175618 3.303317 -2.268330 -28.976711 -1.976676 69.058976 -13.074187 -10.090911 0.000000 0.000000 0.000000 28.448482 -2.661280 -2.047687 51.980695 5.544744 -5.809141 7.767232 24.091851 2.825095 0.000000 0.000000 0.000000 
0.017109 0.963994 -0.032057 -0.296748 1.279026 -5.334384 2.318575 0.992573 14.728939 -2.042458 0.406102 -12.676165 -0.083510 6.582289 18.220417 0.000000 0.000000 0.000000 -4.853579 -0.562875 9.904548 2.418400 -0.363738 -5.130073 -0.313009 -7.221101 18.163274 0.000000 0.000000 0.000000 5.011404 -0.758195 9.418400 -4.492676 1.744328 -24.702031 0.614994 3.073161 29.558153 0.313662 2.221029 -28.723564 0.000000 0.000000 0.000000 2.703359 -10.145370 3.338233 -3.740232 -28.570150 -1.803100 68.399952 -12.466331 -9.620379 0.000000 0.000000 0.000000 28.485807 -2.801168 -1.975422 52.226234 5.669793 -5.838617 8.061072 24.307114 2.940415 0.000000 0.000000 0.000000 
0.016549 0.963585 -0.032462 -0.262289 0.976785 -5.349402 2.416304 0.990579 14.707676 -2.268126 0.409351 -12.587440 0.074394 6.748268 18.147909 0.000000 0.000000 0.000000 -4.769848 -0.566171 9.977990 2.440880 -0.362726 -5.099291 -0.477132 -7.348831 17.388381 0.000000 0.000000 0.000000 5.188132 -0.787964 9.636241 -4.690308 1.783503 -24.779548 0.615170 3.438159 29.453928 0.657088 2.065359 -28.772334 0.000000 0.000000 0.000000 1.526668 -9.749708 3.245521 -5.066858 -29.311033 -1.694668 69.046589 -11.487434 -9.044152 0.000000 0.000000 0.000000 28.159172 -2.840913 -1.914808 52.795684 5.866955 -5.791844 8.477565 24.746737 3.111962 0.000000 0.000000 0.000000 
0.015695 0.963325 -0.033346 -0.193411 0.696285 -5.550849 2.409042 1.012332 14.824052 -2.325184 0.413111 -12.444751 0.212537 6.902672 18.109263 0.000000 0.000000 0.000000 -4.869592 -0.542968 9.851263 2.512357 -0.356122 -4.543447 -0.342459 -7.033566 16.880372 0.000000 0.000000 0.000000 5.375429 -0.809290 9.793723 -4.777791 1.807841 -24.615395 0.175292 3.796589 29.491010 1.384970 1.677874 -28.573413 0.000000 0.000000 0.000000 0.433011 -9.902567 3.311376 -5.731677 -29.602743 -1.629560 70.564820 -11.053741 -9.038184 0.000000 0.000000 0.000000 28.367927 -2.801011 -1.837414 53.079082 5.862842 -5.832988 8.853731 25.063557 3.251663 0.000000 0.000000 0.000000 
0.014634 0.962849 -0.034704 -0.221344 0.796560 -5.501040 2.732773 0.940953 14.447792 -2.719407 0.408110 -12.051461 0.208335 6.848700 17.879494 0.000000 0.000000 0.000000 -4.852539 -0.534927 9.647162 2.762781 -0.371146 -4.341020 -0.534541 -7.263882 16.559758 0.000000 0.000000 0.000000 5.453319 -0.808816 9.700687 -5.052714 1.881073 -24.362967 0.015014 3.752731 29.451782 1.964865 1.337338 -28.354094 0.000000 0.000000 0.000000 -0.466061 -10.117757 3.395150 -6.467787 -30.070124 -1.553656 74.399939 -12.551306 -10.735255 0.000000 0.000000 0.000000 28.447719 -2.614708 -1.711146 53.267653 6.097146 -5.739954 8.756299 25.295763 3.268821 0.000000 0.000000 0.000000 
0.013724 0.963086 -0.036186 -0.309871 0.815824 -5.410978 2.936087 0.905649 14.325788 -2.814664 0.408808 -12.188507 0.173632 6.836230 18.008345 0.000000 0.000000 0.000000 -4.707516 -0.515344 9.114194 2.646863 -0.358576 -4.082211 -0.413354 -7.238386 17.286021 0.000000 0.000000 0.000000 5.457056 -0.799222 9.568565 -5.188333 1.920389 -24.120928 -0.032581 3.761938 29.366411 2.619218 0.961317 -28.270993 0.000000 0.000000 0.000000 -1.146624 -10.551594 3.551212 -7.171456 -31.052374 -1.490092 79.435278 -16.155063 -14.508461 0.000000 0.000000 0.000000 28.167183 -2.633858 -1.695301 53.640102 6.071993 -5.764564 9.213717 25.374165 3.388057 0.000000 0.000000 0.000000 
0.013034 0.962848 -0.037583 -0.299839 1.221054 -5.604465 3.002717 0.890476 14.458241 -2.805937 0.403011 -12.292035 -0.032785 6.583754 17.965409 0.000000 0.000000 0.000000 -4.796044 -0.533196 9.309736 2.713756 -0.367454 -4.161035 -0.312945 -7.053916 17.470177 0.000000 0.000000 0.000000 5.464417 -0.791694 9.489560 -5.435110 2.005809 -23.684767 -0.318235 3.346740 29.441548 3.001198 0.690293 -28.063413 0.000000 0.000000 0.000000 -1.353315 -10.853205 3.660726 -6.783628 -32.176414 -1.575642 85.525432 -20.608788 -19.967956 0.000000 0.000000 0.000000 27.982616 -2.462274 -1.630973 53.747390 5.983889 -5.794204 9.259733 24.951895 3.314355 0.000000 0.000000 0.000000 
